# xmcd
#
# Track frame offsets: 
#        182
#        14332
#        31542
#        46755
#        65350
#        79252
#        93282
#        107942
#        127687
#        139215
#        158612
#        175842
#        194442
#
# Disc length: 2793 seconds
#
# Revision: 9
# Processed by: cddbd v1.5.2PL0 Copyright (c) Steve Scherf et al.
# Submitted via: ExactAudioCopy v1.3
#
DISCID=9a0ae70d
DTITLE=Old 97's - Too Far to Care
DYEAR=1997
DGENRE=Alternative Country-Rock
TTITLE0=Timebomb
TTITLE1=Barrier Reef
TTITLE2=Broadway
TTITLE3=Salome
TTITLE4=W. TX Teardrops
TTITLE5=Melt Show
TTITLE6=Streets of Where I'm From
TTITLE7=Big Brown Eyes
TTITLE8=Just Like California
TTITLE9=Curtain Calls
TTITLE10=Niteclub
TTITLE11=House That Used to Be
TTITLE12=Four Leaf Clover
EXTD=
EXTT0=
EXTT1=
EXTT2=
EXTT3=
EXTT4=
EXTT5=
EXTT6=
EXTT7=
EXTT8=
EXTT9=
EXTT10=
EXTT11=
EXTT12=
PLAYORDER=
